<svg xmlns="http://www.w3.org/2000/svg" xmlns:xlink="http://www.w3.org/1999/xlink" width="400" zoomAndPan="magnify" viewBox="0 0 300 299.999988" height="400" preserveAspectRatio="xMidYMid meet" version="1.0"><defs><g/></defs><rect x="-30" width="360" fill="#ffffff" y="-29.999999" height="359.999986" fill-opacity="1"/><rect x="-30" width="360" fill="#2e78db" y="-29.999999" height="359.999986" fill-opacity="1"/><g fill="#ffffff" fill-opacity="1"><g transform="translate(27.372263, 171.211633)"><g><path d="M 61 -52.34375 C 61 -48.019531 59.519531 -44.296875 56.5625 -41.171875 C 53.613281 -38.046875 49.117188 -35.726562 43.078125 -34.21875 L 59.453125 -13.90625 C 61.453125 -11.4375 63.132812 -9.460938 64.5 -7.984375 C 65.875 -6.503906 67.570312 -5.160156 69.59375 -3.953125 C 71.625 -2.753906 73.878906 -2.054688 76.359375 -1.859375 L 76.359375 0 L 57.90625 0 L 31.21875 -33.1875 L 24.421875 -33.1875 L 24.421875 -10.203125 C 24.421875 -7.179688 25.191406 -5.035156 26.734375 -3.765625 C 28.285156 -2.492188 30.707031 -1.859375 34 -1.859375 L 34.421875 -1.859375 L 34.421875 0 L 3.5 0 L 3.5 -1.859375 C 6.800781 -1.859375 9.257812 -2.441406 10.875 -3.609375 C 12.488281 -4.773438 13.296875 -6.867188 13.296875 -9.890625 L 13.296875 -61.109375 C 13.296875 -63.859375 12.488281 -65.847656 10.875 -67.078125 C 9.257812 -68.316406 6.800781 -68.9375 3.5 -68.9375 L 3.5 -70.796875 L 36.578125 -70.796875 C 43.316406 -70.796875 49.070312 -69.28125 53.84375 -66.25 C 58.613281 -63.226562 61 -58.59375 61 -52.34375 Z M 24.421875 -65.328125 L 24.421875 -36.6875 L 27 -36.6875 C 33.9375 -36.6875 39.191406 -38.039062 42.765625 -40.75 C 46.335938 -43.46875 48.125 -47.226562 48.125 -52.03125 C 48.125 -56.226562 46.765625 -59.800781 44.046875 -62.75 C 41.335938 -65.707031 37.507812 -67.1875 32.5625 -67.1875 C 29.882812 -67.1875 27.171875 -66.566406 24.421875 -65.328125 Z M 24.421875 -65.328125 "/></g></g></g><g fill="#ffffff" fill-opacity="1"><g transform="translate(101.562729, 171.211633)"><g><path d="M 14.015625 -10 C 15.597656 -10 16.9375 -9.445312 18.03125 -8.34375 C 19.132812 -7.25 19.6875 -5.910156 19.6875 -4.328125 C 19.6875 -2.742188 19.132812 -1.382812 18.03125 -0.25 C 16.9375 0.875 15.597656 1.4375 14.015625 1.4375 C 12.429688 1.4375 11.070312 0.875 9.9375 -0.25 C 8.8125 -1.382812 8.25 -2.742188 8.25 -4.328125 C 8.25 -5.910156 8.8125 -7.25 9.9375 -8.34375 C 11.070312 -9.445312 12.429688 -10 14.015625 -10 Z M 14.015625 -10 "/></g></g></g><g fill="#ffffff" fill-opacity="1"><g transform="translate(124.231826, 171.211633)"><g><path d="M 42.96875 -72.34375 C 46.40625 -72.34375 49.375 -72.015625 51.875 -71.359375 C 54.382812 -70.703125 56.8125 -69.859375 59.15625 -68.828125 C 61.070312 -68.078125 62.304688 -67.703125 62.859375 -67.703125 C 63.679688 -67.703125 64.46875 -68.128906 65.21875 -68.984375 C 65.976562 -69.847656 66.5 -70.96875 66.78125 -72.34375 L 68.53125 -72.34375 L 70.28125 -48.4375 L 68.53125 -48.4375 C 67.90625 -52.625 66.375 -56.226562 63.9375 -59.25 C 61.5 -62.269531 58.507812 -64.550781 54.96875 -66.09375 C 51.4375 -67.644531 47.710938 -68.421875 43.796875 -68.421875 C 35.753906 -68.421875 29.3125 -65.550781 24.46875 -59.8125 C 19.625 -54.082031 17.203125 -45.410156 17.203125 -33.796875 C 17.203125 -26.929688 18.523438 -21.175781 21.171875 -16.53125 C 23.816406 -11.894531 27.285156 -8.460938 31.578125 -6.234375 C 35.878906 -4.003906 40.46875 -2.890625 45.34375 -2.890625 C 50.351562 -2.890625 55.125 -4.160156 59.65625 -6.703125 C 64.195312 -9.242188 67.738281 -12.644531 70.28125 -16.90625 L 71.828125 -15.875 C 65.023438 -4.257812 54.992188 1.546875 41.734375 1.546875 C 34.859375 1.546875 28.570312 -0.046875 22.875 -3.234375 C 17.175781 -6.429688 12.660156 -10.78125 9.328125 -16.28125 C 5.992188 -21.78125 4.328125 -27.828125 4.328125 -34.421875 C 4.328125 -41.359375 6.039062 -47.726562 9.46875 -53.53125 C 12.90625 -59.332031 17.578125 -63.914062 23.484375 -67.28125 C 29.398438 -70.65625 35.894531 -72.34375 42.96875 -72.34375 Z M 42.96875 -72.34375 "/></g></g></g><g fill="#ffffff" fill-opacity="1"><g transform="translate(193.064073, 171.211633)"><g><path d="M 14.015625 -10 C 15.597656 -10 16.9375 -9.445312 18.03125 -8.34375 C 19.132812 -7.25 19.6875 -5.910156 19.6875 -4.328125 C 19.6875 -2.742188 19.132812 -1.382812 18.03125 -0.25 C 16.9375 0.875 15.597656 1.4375 14.015625 1.4375 C 12.429688 1.4375 11.070312 0.875 9.9375 -0.25 C 8.8125 -1.382812 8.25 -2.742188 8.25 -4.328125 C 8.25 -5.910156 8.8125 -7.25 9.9375 -8.34375 C 11.070312 -9.445312 12.429688 -10 14.015625 -10 Z M 14.015625 -10 "/></g></g></g><g fill="#ffffff" fill-opacity="1"><g transform="translate(215.733176, 171.211633)"><g><path d="M 25.96875 -72.34375 C 28.300781 -72.34375 30.328125 -72.117188 32.046875 -71.671875 C 33.765625 -71.222656 35.515625 -70.617188 37.296875 -69.859375 C 38.191406 -69.515625 39.066406 -69.207031 39.921875 -68.9375 C 40.785156 -68.664062 41.5625 -68.53125 42.25 -68.53125 C 43.894531 -68.53125 45.203125 -69.800781 46.171875 -72.34375 L 48.125 -72.34375 L 48.125 -48.84375 L 46.171875 -48.84375 C 45.828125 -52.488281 44.742188 -55.800781 42.921875 -58.78125 C 41.097656 -61.769531 38.828125 -64.125 36.109375 -65.84375 C 33.398438 -67.5625 30.5 -68.421875 27.40625 -68.421875 C 24.039062 -68.421875 21.15625 -67.40625 18.75 -65.375 C 16.34375 -63.351562 15.140625 -60.898438 15.140625 -58.015625 C 15.140625 -54.648438 16.789062 -51.726562 20.09375 -49.25 C 22.425781 -47.539062 25.691406 -45.484375 29.890625 -43.078125 C 33.597656 -40.804688 36.6875 -38.847656 39.15625 -37.203125 C 41.632812 -35.554688 43.9375 -33.769531 46.0625 -31.84375 C 47.988281 -29.988281 49.515625 -27.859375 50.640625 -25.453125 C 51.773438 -23.046875 52.34375 -20.570312 52.34375 -18.03125 C 52.34375 -14.53125 51.378906 -11.265625 49.453125 -8.234375 C 47.535156 -5.210938 44.910156 -2.828125 41.578125 -1.078125 C 38.242188 0.671875 34.585938 1.546875 30.609375 1.546875 C 28.066406 1.546875 25.816406 1.320312 23.859375 0.875 C 21.898438 0.425781 19.851562 -0.171875 17.71875 -0.921875 C 15.382812 -1.742188 13.632812 -2.15625 12.46875 -2.15625 C 10.613281 -2.15625 9.207031 -0.921875 8.25 1.546875 L 6.390625 1.546875 L 6.390625 -22.265625 L 8.25 -22.265625 C 9.414062 -16.148438 11.734375 -11.304688 15.203125 -7.734375 C 18.671875 -4.160156 23.148438 -2.375 28.640625 -2.375 C 32.554688 -2.375 35.785156 -3.4375 38.328125 -5.5625 C 40.867188 -7.695312 42.140625 -10.378906 42.140625 -13.609375 C 42.140625 -15.253906 41.832031 -16.765625 41.21875 -18.140625 C 40.601562 -19.515625 39.570312 -20.988281 38.125 -22.5625 C 36.820312 -23.9375 34.96875 -25.429688 32.5625 -27.046875 C 30.15625 -28.660156 26.960938 -30.671875 22.984375 -33.078125 C 19.617188 -35.140625 17.039062 -36.769531 15.25 -37.96875 C 13.46875 -39.175781 12.128906 -40.222656 11.234375 -41.109375 C 7.734375 -44.679688 5.984375 -48.976562 5.984375 -54 C 5.984375 -57.4375 6.859375 -60.546875 8.609375 -63.328125 C 10.359375 -66.109375 12.742188 -68.304688 15.765625 -69.921875 C 18.785156 -71.535156 22.1875 -72.34375 25.96875 -72.34375 Z M 25.96875 -72.34375 "/></g></g></g><g fill="#ffffff" fill-opacity="1"><g transform="translate(47.500001, 219.148326)"><g><path d="M 23.5625 -21.40625 L 22.875 -21.40625 C 22.613281 -22.925781 22.117188 -24.050781 21.390625 -24.78125 C 20.671875 -25.507812 19.675781 -25.875 18.40625 -25.875 L 9.71875 -25.875 L 9.71875 -15.28125 L 16.84375 -15.28125 C 18.125 -15.28125 19.03125 -15.597656 19.5625 -16.234375 C 20.09375 -16.878906 20.375 -17.894531 20.40625 -19.28125 L 21.125 -19.28125 L 21.125 -9.59375 L 20.40625 -9.59375 C 20.40625 -10.988281 20.132812 -12.019531 19.59375 -12.6875 C 19.0625 -13.351562 18.117188 -13.6875 16.765625 -13.6875 L 9.71875 -13.6875 L 9.71875 -3.640625 C 9.71875 -2.273438 10.25 -1.59375 11.3125 -1.59375 L 18.359375 -1.59375 C 19.828125 -1.59375 21.117188 -2.039062 22.234375 -2.9375 C 23.359375 -3.832031 24.265625 -5.132812 24.953125 -6.84375 L 25.796875 -6.84375 L 23.5625 0 L 1.4375 0 L 1.4375 -0.71875 C 2.820312 -0.71875 3.828125 -0.953125 4.453125 -1.421875 C 5.085938 -1.890625 5.40625 -2.765625 5.40625 -4.046875 L 5.40625 -23.71875 C 5.40625 -24.78125 5.085938 -25.550781 4.453125 -26.03125 C 3.828125 -26.519531 2.820312 -26.765625 1.4375 -26.765625 L 1.4375 -27.484375 L 23.234375 -27.484375 Z M 23.5625 -21.40625 "/></g></g></g><g fill="#ffffff" fill-opacity="1"><g transform="translate(74.177344, 219.148326)"><g><path d="M 7.15625 -15.078125 C 8.539062 -16.566406 9.671875 -17.59375 10.546875 -18.15625 C 11.429688 -18.71875 12.410156 -19 13.484375 -19 C 14.648438 -19 15.59375 -18.6875 16.3125 -18.0625 C 17.039062 -17.4375 17.5625 -16.671875 17.875 -15.765625 C 18.195312 -14.859375 18.359375 -13.960938 18.359375 -13.078125 L 18.359375 -4.234375 C 18.359375 -2.878906 18.570312 -1.96875 19 -1.5 C 19.425781 -1.03125 20.160156 -0.769531 21.203125 -0.71875 L 21.203125 0 L 11.84375 0 L 11.84375 -0.71875 C 12.695312 -0.71875 13.347656 -0.8125 13.796875 -1 C 14.253906 -1.1875 14.582031 -1.523438 14.78125 -2.015625 C 14.976562 -2.515625 15.078125 -3.253906 15.078125 -4.234375 L 15.078125 -13.234375 C 15.078125 -14.085938 14.796875 -14.867188 14.234375 -15.578125 C 13.679688 -16.285156 12.910156 -16.640625 11.921875 -16.640625 C 11.097656 -16.640625 10.3125 -16.414062 9.5625 -15.96875 C 8.8125 -15.53125 8.007812 -14.859375 7.15625 -13.953125 L 7.15625 -4.234375 C 7.15625 -2.847656 7.378906 -1.921875 7.828125 -1.453125 C 8.285156 -0.992188 9.078125 -0.75 10.203125 -0.71875 L 10.203125 0 L 1 0 L 1 -0.71875 C 1.820312 -0.800781 2.429688 -0.945312 2.828125 -1.15625 C 3.234375 -1.375 3.507812 -1.707031 3.65625 -2.15625 C 3.800781 -2.613281 3.875 -3.269531 3.875 -4.125 L 3.875 -14.078125 C 3.875 -14.691406 3.738281 -15.222656 3.46875 -15.671875 C 3.207031 -16.128906 2.785156 -16.359375 2.203125 -16.359375 C 1.929688 -16.359375 1.679688 -16.3125 1.453125 -16.21875 C 1.234375 -16.125 1.082031 -16.066406 1 -16.046875 L 0.71875 -16.796875 L 6.484375 -19 L 7.15625 -19 Z M 7.15625 -15.078125 "/></g></g></g><g fill="#ffffff" fill-opacity="1"><g transform="translate(96.255147, 219.148326)"><g><path d="M 10.15625 -19 C 11.65625 -19 13.03125 -18.613281 14.28125 -17.84375 L 18.640625 -17.84375 C 19.015625 -17.84375 19.234375 -17.785156 19.296875 -17.671875 C 19.367188 -17.566406 19.40625 -17.289062 19.40625 -16.84375 C 19.40625 -16.4375 19.375 -16.1875 19.3125 -16.09375 C 19.257812 -16 19.101562 -15.953125 18.84375 -15.953125 L 15.796875 -15.953125 C 16.171875 -15.367188 16.4375 -14.820312 16.59375 -14.3125 C 16.757812 -13.8125 16.84375 -13.226562 16.84375 -12.5625 C 16.84375 -11.332031 16.546875 -10.226562 15.953125 -9.25 C 15.367188 -8.28125 14.550781 -7.519531 13.5 -6.96875 C 12.445312 -6.425781 11.253906 -6.15625 9.921875 -6.15625 C 9.066406 -6.15625 8.1875 -6.289062 7.28125 -6.5625 C 6.21875 -5.601562 5.6875 -4.800781 5.6875 -4.15625 C 5.6875 -3.8125 5.878906 -3.53125 6.265625 -3.3125 C 6.648438 -3.101562 7.457031 -3 8.6875 -3 L 13.234375 -3 C 14.835938 -3 16.238281 -2.648438 17.4375 -1.953125 C 18.632812 -1.265625 19.234375 -0.238281 19.234375 1.125 C 19.234375 2.40625 18.753906 3.609375 17.796875 4.734375 C 16.835938 5.867188 15.5625 6.773438 13.96875 7.453125 C 12.382812 8.140625 10.6875 8.484375 8.875 8.484375 C 7.65625 8.484375 6.453125 8.300781 5.265625 7.9375 C 4.078125 7.582031 3.113281 7.109375 2.375 6.515625 C 1.644531 5.929688 1.28125 5.332031 1.28125 4.71875 C 1.28125 4.207031 1.519531 3.597656 2 2.890625 C 2.476562 2.191406 3.503906 1.054688 5.078125 -0.515625 C 3.742188 -0.921875 3.078125 -1.578125 3.078125 -2.484375 C 3.078125 -3.203125 3.359375 -3.925781 3.921875 -4.65625 C 4.484375 -5.394531 5.269531 -6.160156 6.28125 -6.953125 C 5.21875 -7.515625 4.390625 -8.28125 3.796875 -9.25 C 3.210938 -10.226562 2.921875 -11.289062 2.921875 -12.4375 C 2.921875 -13.664062 3.234375 -14.78125 3.859375 -15.78125 C 4.484375 -16.78125 5.347656 -17.566406 6.453125 -18.140625 C 7.566406 -18.710938 8.800781 -19 10.15625 -19 Z M 6.3125 -14.125 C 6.3125 -13.132812 6.445312 -12.101562 6.71875 -11.03125 C 6.988281 -9.96875 7.441406 -9.054688 8.078125 -8.296875 C 8.722656 -7.535156 9.535156 -7.15625 10.515625 -7.15625 C 11.398438 -7.15625 12.109375 -7.578125 12.640625 -8.421875 C 13.171875 -9.265625 13.4375 -10.335938 13.4375 -11.640625 C 13.4375 -12.441406 13.289062 -13.328125 13 -14.296875 C 12.707031 -15.273438 12.253906 -16.113281 11.640625 -16.8125 C 11.023438 -17.519531 10.238281 -17.875 9.28125 -17.875 C 8.476562 -17.875 7.78125 -17.535156 7.1875 -16.859375 C 6.601562 -16.179688 6.3125 -15.269531 6.3125 -14.125 Z M 12.40625 0.046875 L 10.921875 0.046875 C 9.722656 0.046875 8.742188 0.0234375 7.984375 -0.015625 C 7.222656 -0.0546875 6.5625 -0.15625 6 -0.3125 C 5.382812 0.375 4.929688 0.988281 4.640625 1.53125 C 4.347656 2.082031 4.203125 2.613281 4.203125 3.125 C 4.203125 4.082031 4.859375 4.8125 6.171875 5.3125 C 7.492188 5.820312 9.085938 6.078125 10.953125 6.078125 C 12.285156 6.078125 13.484375 5.90625 14.546875 5.5625 C 15.617188 5.21875 16.460938 4.738281 17.078125 4.125 C 17.691406 3.507812 18 2.828125 18 2.078125 C 18 1.222656 17.550781 0.675781 16.65625 0.4375 C 15.757812 0.195312 14.34375 0.0664062 12.40625 0.046875 Z M 12.40625 0.046875 "/></g></g></g><g fill="#ffffff" fill-opacity="1"><g transform="translate(116.253158, 219.148326)"><g><path d="M 5.4375 -28.796875 C 6.019531 -28.796875 6.507812 -28.59375 6.90625 -28.1875 C 7.3125 -27.789062 7.515625 -27.316406 7.515625 -26.765625 C 7.515625 -26.171875 7.3125 -25.675781 6.90625 -25.28125 C 6.507812 -24.882812 6.019531 -24.6875 5.4375 -24.6875 C 4.875 -24.6875 4.394531 -24.882812 4 -25.28125 C 3.601562 -25.675781 3.40625 -26.171875 3.40625 -26.765625 C 3.40625 -27.316406 3.601562 -27.789062 4 -28.1875 C 4.394531 -28.59375 4.875 -28.796875 5.4375 -28.796875 Z M 7.203125 -4.15625 C 7.203125 -2.851562 7.414062 -1.960938 7.84375 -1.484375 C 8.269531 -1.003906 8.960938 -0.75 9.921875 -0.71875 L 9.921875 0 L 0.921875 0 L 0.921875 -0.71875 C 2.015625 -0.71875 2.785156 -0.96875 3.234375 -1.46875 C 3.691406 -1.976562 3.921875 -2.898438 3.921875 -4.234375 L 3.921875 -13.921875 C 3.921875 -14.640625 3.757812 -15.222656 3.4375 -15.671875 C 3.113281 -16.128906 2.617188 -16.359375 1.953125 -16.359375 C 1.660156 -16.359375 1.394531 -16.289062 1.15625 -16.15625 L 0.921875 -16.875 L 6.484375 -19 L 7.203125 -19 Z M 7.203125 -4.15625 "/></g></g></g><g fill="#ffffff" fill-opacity="1"><g transform="translate(127.092085, 219.148326)"><g><path d="M 7.15625 -15.078125 C 8.539062 -16.566406 9.671875 -17.59375 10.546875 -18.15625 C 11.429688 -18.71875 12.410156 -19 13.484375 -19 C 14.648438 -19 15.59375 -18.6875 16.3125 -18.0625 C 17.039062 -17.4375 17.5625 -16.671875 17.875 -15.765625 C 18.195312 -14.859375 18.359375 -13.960938 18.359375 -13.078125 L 18.359375 -4.234375 C 18.359375 -2.878906 18.570312 -1.96875 19 -1.5 C 19.425781 -1.03125 20.160156 -0.769531 21.203125 -0.71875 L 21.203125 0 L 11.84375 0 L 11.84375 -0.71875 C 12.695312 -0.71875 13.347656 -0.8125 13.796875 -1 C 14.253906 -1.1875 14.582031 -1.523438 14.78125 -2.015625 C 14.976562 -2.515625 15.078125 -3.253906 15.078125 -4.234375 L 15.078125 -13.234375 C 15.078125 -14.085938 14.796875 -14.867188 14.234375 -15.578125 C 13.679688 -16.285156 12.910156 -16.640625 11.921875 -16.640625 C 11.097656 -16.640625 10.3125 -16.414062 9.5625 -15.96875 C 8.8125 -15.53125 8.007812 -14.859375 7.15625 -13.953125 L 7.15625 -4.234375 C 7.15625 -2.847656 7.378906 -1.921875 7.828125 -1.453125 C 8.285156 -0.992188 9.078125 -0.75 10.203125 -0.71875 L 10.203125 0 L 1 0 L 1 -0.71875 C 1.820312 -0.800781 2.429688 -0.945312 2.828125 -1.15625 C 3.234375 -1.375 3.507812 -1.707031 3.65625 -2.15625 C 3.800781 -2.613281 3.875 -3.269531 3.875 -4.125 L 3.875 -14.078125 C 3.875 -14.691406 3.738281 -15.222656 3.46875 -15.671875 C 3.207031 -16.128906 2.785156 -16.359375 2.203125 -16.359375 C 1.929688 -16.359375 1.679688 -16.3125 1.453125 -16.21875 C 1.234375 -16.125 1.082031 -16.066406 1 -16.046875 L 0.71875 -16.796875 L 6.484375 -19 L 7.15625 -19 Z M 7.15625 -15.078125 "/></g></g></g><g fill="#ffffff" fill-opacity="1"><g transform="translate(149.169888, 219.148326)"><g><path d="M 9.40625 -19 C 11.476562 -19 13.160156 -18.304688 14.453125 -16.921875 C 15.753906 -15.535156 16.40625 -13.734375 16.40625 -11.515625 L 3.84375 -11.515625 L 3.84375 -11 C 3.84375 -9.582031 4.117188 -8.226562 4.671875 -6.9375 C 5.234375 -5.644531 6.019531 -4.597656 7.03125 -3.796875 C 8.050781 -2.992188 9.203125 -2.59375 10.484375 -2.59375 C 13.015625 -2.59375 14.785156 -4.007812 15.796875 -6.84375 L 16.40625 -6.515625 C 15.976562 -4.328125 15.097656 -2.597656 13.765625 -1.328125 C 12.429688 -0.0664062 10.828125 0.5625 8.953125 0.5625 C 7.566406 0.5625 6.28125 0.203125 5.09375 -0.515625 C 3.90625 -1.234375 2.945312 -2.3125 2.21875 -3.75 C 1.488281 -5.195312 1.125 -6.945312 1.125 -9 C 1.125 -10.96875 1.46875 -12.710938 2.15625 -14.234375 C 2.851562 -15.753906 3.828125 -16.925781 5.078125 -17.75 C 6.328125 -18.582031 7.769531 -19 9.40625 -19 Z M 8.28125 -17.59375 C 7.15625 -17.59375 6.1875 -17.148438 5.375 -16.265625 C 4.5625 -15.390625 4.078125 -14.222656 3.921875 -12.765625 L 12.28125 -12.765625 C 12.226562 -14.203125 11.859375 -15.363281 11.171875 -16.25 C 10.492188 -17.144531 9.53125 -17.59375 8.28125 -17.59375 Z M 8.28125 -17.59375 "/></g></g></g><g fill="#ffffff" fill-opacity="1"><g transform="translate(166.688148, 219.148326)"><g><path d="M 9.40625 -19 C 11.476562 -19 13.160156 -18.304688 14.453125 -16.921875 C 15.753906 -15.535156 16.40625 -13.734375 16.40625 -11.515625 L 3.84375 -11.515625 L 3.84375 -11 C 3.84375 -9.582031 4.117188 -8.226562 4.671875 -6.9375 C 5.234375 -5.644531 6.019531 -4.597656 7.03125 -3.796875 C 8.050781 -2.992188 9.203125 -2.59375 10.484375 -2.59375 C 13.015625 -2.59375 14.785156 -4.007812 15.796875 -6.84375 L 16.40625 -6.515625 C 15.976562 -4.328125 15.097656 -2.597656 13.765625 -1.328125 C 12.429688 -0.0664062 10.828125 0.5625 8.953125 0.5625 C 7.566406 0.5625 6.28125 0.203125 5.09375 -0.515625 C 3.90625 -1.234375 2.945312 -2.3125 2.21875 -3.75 C 1.488281 -5.195312 1.125 -6.945312 1.125 -9 C 1.125 -10.96875 1.46875 -12.710938 2.15625 -14.234375 C 2.851562 -15.753906 3.828125 -16.925781 5.078125 -17.75 C 6.328125 -18.582031 7.769531 -19 9.40625 -19 Z M 8.28125 -17.59375 C 7.15625 -17.59375 6.1875 -17.148438 5.375 -16.265625 C 4.5625 -15.390625 4.078125 -14.222656 3.921875 -12.765625 L 12.28125 -12.765625 C 12.226562 -14.203125 11.859375 -15.363281 11.171875 -16.25 C 10.492188 -17.144531 9.53125 -17.59375 8.28125 -17.59375 Z M 8.28125 -17.59375 "/></g></g></g><g fill="#ffffff" fill-opacity="1"><g transform="translate(184.206407, 219.148326)"><g><path d="M 7.40625 -15.234375 L 7.484375 -15.234375 C 8.171875 -16.460938 8.921875 -17.394531 9.734375 -18.03125 C 10.546875 -18.675781 11.460938 -19 12.484375 -19 C 13.203125 -19 13.785156 -18.78125 14.234375 -18.34375 C 14.691406 -17.90625 14.921875 -17.363281 14.921875 -16.71875 C 14.921875 -16.207031 14.738281 -15.78125 14.375 -15.4375 C 14.019531 -15.09375 13.613281 -14.921875 13.15625 -14.921875 C 12.78125 -14.921875 12.472656 -14.992188 12.234375 -15.140625 C 11.992188 -15.285156 11.753906 -15.476562 11.515625 -15.71875 C 11.460938 -15.75 11.367188 -15.828125 11.234375 -15.953125 C 11.109375 -16.085938 10.96875 -16.1875 10.8125 -16.25 C 10.664062 -16.320312 10.515625 -16.359375 10.359375 -16.359375 C 9.742188 -16.359375 9.21875 -16.109375 8.78125 -15.609375 C 8.34375 -15.117188 7.882812 -14.445312 7.40625 -13.59375 L 7.40625 -4.234375 C 7.40625 -3.203125 7.515625 -2.429688 7.734375 -1.921875 C 7.960938 -1.410156 8.316406 -1.082031 8.796875 -0.9375 C 9.273438 -0.789062 9.984375 -0.71875 10.921875 -0.71875 L 10.921875 0 L 1.078125 0 L 1.078125 -0.71875 L 1.28125 -0.71875 C 2.269531 -0.71875 2.988281 -0.957031 3.4375 -1.4375 C 3.894531 -1.914062 4.125 -2.796875 4.125 -4.078125 L 4.125 -13.203125 C 4.125 -14.453125 3.988281 -15.269531 3.71875 -15.65625 C 3.445312 -16.039062 2.976562 -16.234375 2.3125 -16.234375 C 1.914062 -16.234375 1.582031 -16.15625 1.3125 -16 L 1.078125 -16.6875 L 6.6875 -19 L 7.40625 -19 Z M 7.40625 -15.234375 "/></g></g></g><g fill="#ffffff" fill-opacity="1"><g transform="translate(199.604878, 219.148326)"><g><path d="M 5.4375 -28.796875 C 6.019531 -28.796875 6.507812 -28.59375 6.90625 -28.1875 C 7.3125 -27.789062 7.515625 -27.316406 7.515625 -26.765625 C 7.515625 -26.171875 7.3125 -25.675781 6.90625 -25.28125 C 6.507812 -24.882812 6.019531 -24.6875 5.4375 -24.6875 C 4.875 -24.6875 4.394531 -24.882812 4 -25.28125 C 3.601562 -25.675781 3.40625 -26.171875 3.40625 -26.765625 C 3.40625 -27.316406 3.601562 -27.789062 4 -28.1875 C 4.394531 -28.59375 4.875 -28.796875 5.4375 -28.796875 Z M 7.203125 -4.15625 C 7.203125 -2.851562 7.414062 -1.960938 7.84375 -1.484375 C 8.269531 -1.003906 8.960938 -0.75 9.921875 -0.71875 L 9.921875 0 L 0.921875 0 L 0.921875 -0.71875 C 2.015625 -0.71875 2.785156 -0.96875 3.234375 -1.46875 C 3.691406 -1.976562 3.921875 -2.898438 3.921875 -4.234375 L 3.921875 -13.921875 C 3.921875 -14.640625 3.757812 -15.222656 3.4375 -15.671875 C 3.113281 -16.128906 2.617188 -16.359375 1.953125 -16.359375 C 1.660156 -16.359375 1.394531 -16.289062 1.15625 -16.15625 L 0.921875 -16.875 L 6.484375 -19 L 7.203125 -19 Z M 7.203125 -4.15625 "/></g></g></g><g fill="#ffffff" fill-opacity="1"><g transform="translate(210.443805, 219.148326)"><g><path d="M 7.15625 -15.078125 C 8.539062 -16.566406 9.671875 -17.59375 10.546875 -18.15625 C 11.429688 -18.71875 12.410156 -19 13.484375 -19 C 14.648438 -19 15.59375 -18.6875 16.3125 -18.0625 C 17.039062 -17.4375 17.5625 -16.671875 17.875 -15.765625 C 18.195312 -14.859375 18.359375 -13.960938 18.359375 -13.078125 L 18.359375 -4.234375 C 18.359375 -2.878906 18.570312 -1.96875 19 -1.5 C 19.425781 -1.03125 20.160156 -0.769531 21.203125 -0.71875 L 21.203125 0 L 11.84375 0 L 11.84375 -0.71875 C 12.695312 -0.71875 13.347656 -0.8125 13.796875 -1 C 14.253906 -1.1875 14.582031 -1.523438 14.78125 -2.015625 C 14.976562 -2.515625 15.078125 -3.253906 15.078125 -4.234375 L 15.078125 -13.234375 C 15.078125 -14.085938 14.796875 -14.867188 14.234375 -15.578125 C 13.679688 -16.285156 12.910156 -16.640625 11.921875 -16.640625 C 11.097656 -16.640625 10.3125 -16.414062 9.5625 -15.96875 C 8.8125 -15.53125 8.007812 -14.859375 7.15625 -13.953125 L 7.15625 -4.234375 C 7.15625 -2.847656 7.378906 -1.921875 7.828125 -1.453125 C 8.285156 -0.992188 9.078125 -0.75 10.203125 -0.71875 L 10.203125 0 L 1 0 L 1 -0.71875 C 1.820312 -0.800781 2.429688 -0.945312 2.828125 -1.15625 C 3.234375 -1.375 3.507812 -1.707031 3.65625 -2.15625 C 3.800781 -2.613281 3.875 -3.269531 3.875 -4.125 L 3.875 -14.078125 C 3.875 -14.691406 3.738281 -15.222656 3.46875 -15.671875 C 3.207031 -16.128906 2.785156 -16.359375 2.203125 -16.359375 C 1.929688 -16.359375 1.679688 -16.3125 1.453125 -16.21875 C 1.234375 -16.125 1.082031 -16.066406 1 -16.046875 L 0.71875 -16.796875 L 6.484375 -19 L 7.15625 -19 Z M 7.15625 -15.078125 "/></g></g></g><g fill="#ffffff" fill-opacity="1"><g transform="translate(232.521608, 219.148326)"><g><path d="M 10.15625 -19 C 11.65625 -19 13.03125 -18.613281 14.28125 -17.84375 L 18.640625 -17.84375 C 19.015625 -17.84375 19.234375 -17.785156 19.296875 -17.671875 C 19.367188 -17.566406 19.40625 -17.289062 19.40625 -16.84375 C 19.40625 -16.4375 19.375 -16.1875 19.3125 -16.09375 C 19.257812 -16 19.101562 -15.953125 18.84375 -15.953125 L 15.796875 -15.953125 C 16.171875 -15.367188 16.4375 -14.820312 16.59375 -14.3125 C 16.757812 -13.8125 16.84375 -13.226562 16.84375 -12.5625 C 16.84375 -11.332031 16.546875 -10.226562 15.953125 -9.25 C 15.367188 -8.28125 14.550781 -7.519531 13.5 -6.96875 C 12.445312 -6.425781 11.253906 -6.15625 9.921875 -6.15625 C 9.066406 -6.15625 8.1875 -6.289062 7.28125 -6.5625 C 6.21875 -5.601562 5.6875 -4.800781 5.6875 -4.15625 C 5.6875 -3.8125 5.878906 -3.53125 6.265625 -3.3125 C 6.648438 -3.101562 7.457031 -3 8.6875 -3 L 13.234375 -3 C 14.835938 -3 16.238281 -2.648438 17.4375 -1.953125 C 18.632812 -1.265625 19.234375 -0.238281 19.234375 1.125 C 19.234375 2.40625 18.753906 3.609375 17.796875 4.734375 C 16.835938 5.867188 15.5625 6.773438 13.96875 7.453125 C 12.382812 8.140625 10.6875 8.484375 8.875 8.484375 C 7.65625 8.484375 6.453125 8.300781 5.265625 7.9375 C 4.078125 7.582031 3.113281 7.109375 2.375 6.515625 C 1.644531 5.929688 1.28125 5.332031 1.28125 4.71875 C 1.28125 4.207031 1.519531 3.597656 2 2.890625 C 2.476562 2.191406 3.503906 1.054688 5.078125 -0.515625 C 3.742188 -0.921875 3.078125 -1.578125 3.078125 -2.484375 C 3.078125 -3.203125 3.359375 -3.925781 3.921875 -4.65625 C 4.484375 -5.394531 5.269531 -6.160156 6.28125 -6.953125 C 5.21875 -7.515625 4.390625 -8.28125 3.796875 -9.25 C 3.210938 -10.226562 2.921875 -11.289062 2.921875 -12.4375 C 2.921875 -13.664062 3.234375 -14.78125 3.859375 -15.78125 C 4.484375 -16.78125 5.347656 -17.566406 6.453125 -18.140625 C 7.566406 -18.710938 8.800781 -19 10.15625 -19 Z M 6.3125 -14.125 C 6.3125 -13.132812 6.445312 -12.101562 6.71875 -11.03125 C 6.988281 -9.96875 7.441406 -9.054688 8.078125 -8.296875 C 8.722656 -7.535156 9.535156 -7.15625 10.515625 -7.15625 C 11.398438 -7.15625 12.109375 -7.578125 12.640625 -8.421875 C 13.171875 -9.265625 13.4375 -10.335938 13.4375 -11.640625 C 13.4375 -12.441406 13.289062 -13.328125 13 -14.296875 C 12.707031 -15.273438 12.253906 -16.113281 11.640625 -16.8125 C 11.023438 -17.519531 10.238281 -17.875 9.28125 -17.875 C 8.476562 -17.875 7.78125 -17.535156 7.1875 -16.859375 C 6.601562 -16.179688 6.3125 -15.269531 6.3125 -14.125 Z M 12.40625 0.046875 L 10.921875 0.046875 C 9.722656 0.046875 8.742188 0.0234375 7.984375 -0.015625 C 7.222656 -0.0546875 6.5625 -0.15625 6 -0.3125 C 5.382812 0.375 4.929688 0.988281 4.640625 1.53125 C 4.347656 2.082031 4.203125 2.613281 4.203125 3.125 C 4.203125 4.082031 4.859375 4.8125 6.171875 5.3125 C 7.492188 5.820312 9.085938 6.078125 10.953125 6.078125 C 12.285156 6.078125 13.484375 5.90625 14.546875 5.5625 C 15.617188 5.21875 16.460938 4.738281 17.078125 4.125 C 17.691406 3.507812 18 2.828125 18 2.078125 C 18 1.222656 17.550781 0.675781 16.65625 0.4375 C 15.757812 0.195312 14.34375 0.0664062 12.40625 0.046875 Z M 12.40625 0.046875 "/></g></g></g></svg>