<svg width="190" height="190" viewBox="0 0 190 190" fill="none" xmlns="http://www.w3.org/2000/svg">
<rect width="190" height="190" fill="url(#paint0_linear_7082_10)"/>
<path d="M63.9834 89.6445H71.0762C72.0957 89.6445 72.9658 89.46 73.6865 89.0908C74.4248 88.7041 74.9785 88.1504 75.3477 87.4297C75.7344 86.6914 75.9277 85.8125 75.9277 84.793V80.8643C75.9277 79.792 75.7344 78.8779 75.3477 78.1221C74.9785 77.3486 74.4248 76.7686 73.6865 76.3818C72.9658 75.9775 72.0957 75.7754 71.0762 75.7754H63.9834V71.6357H70.707C72.7285 71.6357 74.46 71.9785 75.9014 72.6641C77.3428 73.332 78.4414 74.3252 79.1973 75.6436C79.9531 76.9443 80.3311 78.5088 80.3311 80.3369V84.8193C80.3311 86.7002 79.9531 88.3174 79.1973 89.6709C78.4414 91.0068 77.3428 92.0264 75.9014 92.7295C74.46 93.4326 72.7285 93.7842 70.707 93.7842H63.9834V89.6445ZM61.6367 71.6357H66.04V110H61.6367V71.6357ZM71.2607 92.5977L75.2949 91.3848L81.4121 110H76.4814L71.2607 92.5977ZM94.9648 110.396C93.1016 110.396 91.502 110.009 90.166 109.235C88.8301 108.462 87.8105 107.346 87.1074 105.887C86.4043 104.41 86.0527 102.644 86.0527 100.587V81.1016C86.0527 79.0273 86.4043 77.2607 87.1074 75.8018C87.8105 74.3252 88.8213 73.2002 90.1396 72.4268C91.4756 71.6533 93.084 71.2666 94.9648 71.2666C96.8457 71.2666 98.4541 71.6533 99.79 72.4268C101.126 73.2002 102.137 74.3252 102.822 75.8018C103.525 77.2607 103.877 79.0186 103.877 81.0752V82.5781H99.4473V81.0752C99.4473 79.8975 99.2715 78.8955 98.9199 78.0693C98.5859 77.2432 98.0762 76.6191 97.3906 76.1973C96.7227 75.7578 95.9141 75.5381 94.9648 75.5381C94.0332 75.5381 93.2334 75.7578 92.5654 76.1973C91.8975 76.6191 91.3789 77.252 91.0098 78.0957C90.6582 78.9219 90.4824 79.9238 90.4824 81.1016V100.587C90.4824 101.747 90.6582 102.74 91.0098 103.566C91.3789 104.393 91.8975 105.025 92.5654 105.465C93.2334 105.904 94.0332 106.124 94.9648 106.124C95.9141 106.124 96.7227 105.904 97.3906 105.465C98.0762 105.025 98.5859 104.393 98.9199 103.566C99.2715 102.74 99.4473 101.747 99.4473 100.587V99.0576H103.877V100.587C103.877 102.644 103.525 104.41 102.822 105.887C102.137 107.346 101.126 108.462 99.79 109.235C98.4541 110.009 96.8457 110.396 94.9648 110.396ZM117.693 110.396C115.654 110.396 113.94 110.062 112.552 109.394C111.163 108.708 110.117 107.697 109.414 106.361C108.711 105.008 108.359 103.347 108.359 101.378V99.4795H112.736V101.299C112.736 102.916 113.149 104.138 113.976 104.964C114.819 105.79 116.059 106.203 117.693 106.203C119.293 106.203 120.497 105.79 121.306 104.964C122.114 104.138 122.519 102.916 122.519 101.299V98.4775C122.519 97.4053 122.264 96.4912 121.754 95.7354C121.262 94.9619 120.629 94.3291 119.855 93.8369C119.1 93.3271 118.08 92.7734 116.797 92.1758C116.762 92.1582 116.718 92.1406 116.665 92.123C116.63 92.1055 116.595 92.0879 116.56 92.0703L116.19 91.8857C114.521 91.0947 113.167 90.3477 112.13 89.6445C111.093 88.9414 110.205 87.9834 109.467 86.7705C108.746 85.54 108.386 84.0107 108.386 82.1826V80.126C108.386 78.1924 108.737 76.5664 109.44 75.248C110.144 73.9297 111.181 72.9365 112.552 72.2686C113.94 71.6006 115.646 71.2666 117.667 71.2666C119.636 71.2666 121.288 71.6094 122.624 72.2949C123.978 72.9629 124.988 73.9648 125.656 75.3008C126.342 76.6367 126.685 78.2803 126.685 80.2314V82.2354H122.308V80.3369C122.308 78.7197 121.912 77.498 121.121 76.6719C120.348 75.8457 119.196 75.4326 117.667 75.4326C116.05 75.4326 114.828 75.8281 114.002 76.6191C113.176 77.4102 112.763 78.5615 112.763 80.0732V82.209C112.763 83.2812 113.018 84.1953 113.527 84.9512C114.055 85.6895 114.705 86.2959 115.479 86.7705C116.252 87.2275 117.307 87.7725 118.643 88.4053C118.783 88.458 118.906 88.5195 119.012 88.5898C119.135 88.6426 119.267 88.6953 119.407 88.748C119.478 88.7832 119.548 88.8184 119.618 88.8535C119.706 88.8887 119.785 88.9238 119.855 88.959C121.35 89.6621 122.571 90.3652 123.521 91.0684C124.487 91.7539 125.287 92.6943 125.92 93.8896C126.57 95.085 126.896 96.5967 126.896 98.4248V101.378C126.896 103.347 126.544 104.999 125.841 106.335C125.155 107.671 124.127 108.682 122.756 109.367C121.402 110.053 119.715 110.396 117.693 110.396Z" fill="white"/>
<path d="M50.8789 115.221H52.3467V128H50.8789V115.221ZM51.749 126.62H56.3633V128H51.749V126.62ZM51.749 120.96H55.9238V122.34H51.749V120.96ZM51.749 115.221H56.3633V116.601H51.749V115.221ZM59.5695 118.877H61.0373V128H59.5695V118.877ZM63.674 121.61C63.674 121.101 63.5656 120.72 63.3488 120.468C63.132 120.21 62.801 120.081 62.3557 120.081C61.9162 120.081 61.5852 120.219 61.3625 120.494C61.1457 120.764 61.0373 121.174 61.0373 121.725L60.8527 120.415C61.0637 119.847 61.3479 119.422 61.7053 119.141C62.0686 118.859 62.4963 118.719 62.9885 118.719C63.6975 118.719 64.2336 118.941 64.5969 119.387C64.9602 119.832 65.1418 120.491 65.1418 121.364V128H63.674V121.61ZM71.4066 131.709C70.557 131.709 69.9008 131.478 69.4379 131.015C68.975 130.558 68.7436 129.916 68.7436 129.09V128.976H70.2113V129.09C70.2113 129.5 70.3197 129.816 70.5365 130.039C70.7592 130.268 71.0697 130.382 71.4682 130.382C71.8666 130.382 72.1742 130.273 72.391 130.057C72.6137 129.84 72.725 129.532 72.725 129.134V118.877H74.184V129.134C74.184 129.679 74.0756 130.142 73.8588 130.522C73.642 130.909 73.3256 131.202 72.9096 131.401C72.4936 131.606 71.9926 131.709 71.4066 131.709ZM70.8441 128.158C70.393 128.158 70.0063 128.053 69.684 127.842C69.3676 127.625 69.1244 127.312 68.9545 126.901C68.7846 126.491 68.6996 125.999 68.6996 125.425V121.549C68.6996 120.951 68.7846 120.441 68.9545 120.02C69.1244 119.592 69.3676 119.27 69.684 119.053C70.0063 118.83 70.393 118.719 70.8441 118.719C71.2777 118.719 71.6732 118.859 72.0307 119.141C72.3939 119.422 72.6869 119.817 72.9096 120.327L72.725 121.575C72.725 121.247 72.6752 120.969 72.5756 120.74C72.476 120.506 72.3295 120.327 72.1361 120.204C71.9428 120.081 71.7113 120.02 71.4418 120.02C71.0375 120.02 70.724 120.157 70.5014 120.433C70.2787 120.708 70.1674 121.092 70.1674 121.584V125.416C70.1674 125.867 70.2787 126.219 70.5014 126.471C70.724 126.723 71.0375 126.849 71.4418 126.849C71.7113 126.849 71.9428 126.79 72.1361 126.673C72.3295 126.556 72.476 126.386 72.5756 126.163C72.6752 125.935 72.725 125.662 72.725 125.346L72.848 126.567C72.6781 127.071 72.4174 127.464 72.0658 127.745C71.7201 128.021 71.3129 128.158 70.8441 128.158ZM78.0055 115.528H79.4732V116.996H78.0055V115.528ZM78.0055 118.877H79.4732V128H78.0055V118.877ZM83.2859 118.877H84.7537V128H83.2859V118.877ZM87.3904 121.61C87.3904 121.101 87.282 120.72 87.0652 120.468C86.8484 120.21 86.5174 120.081 86.0721 120.081C85.6326 120.081 85.3016 120.219 85.0789 120.494C84.8621 120.764 84.7537 121.174 84.7537 121.725L84.5691 120.415C84.7801 119.847 85.0643 119.422 85.4217 119.141C85.785 118.859 86.2127 118.719 86.7049 118.719C87.4139 118.719 87.95 118.941 88.3133 119.387C88.6766 119.832 88.8582 120.491 88.8582 121.364V128H87.3904V121.61ZM95.1934 128.132C94.6074 128.132 94.1064 128.015 93.6904 127.78C93.2803 127.54 92.9639 127.194 92.7412 126.743C92.5244 126.286 92.416 125.738 92.416 125.1V121.927C92.416 121.247 92.5215 120.667 92.7324 120.187C92.9492 119.706 93.2598 119.343 93.6641 119.097C94.0684 118.845 94.5547 118.719 95.123 118.719C95.7031 118.719 96.1953 118.836 96.5996 119.07C97.0098 119.299 97.3203 119.636 97.5312 120.081C97.748 120.521 97.8564 121.054 97.8564 121.681V124.019H93.3916V122.744H96.4238V121.716C96.4238 121.188 96.3096 120.781 96.0811 120.494C95.8584 120.207 95.5391 120.063 95.123 120.063C94.7188 120.063 94.4053 120.216 94.1826 120.521C93.96 120.825 93.8486 121.262 93.8486 121.83V125.144C93.8486 125.653 93.9658 126.052 94.2002 126.339C94.4346 126.62 94.7656 126.761 95.1934 126.761C95.5918 126.761 95.8994 126.652 96.1162 126.436C96.3389 126.213 96.4502 125.902 96.4502 125.504V125.442H97.8828V125.504C97.8828 126.342 97.6484 126.989 97.1797 127.446C96.7109 127.903 96.0488 128.132 95.1934 128.132ZM104.042 128.132C103.456 128.132 102.955 128.015 102.539 127.78C102.129 127.54 101.813 127.194 101.59 126.743C101.373 126.286 101.265 125.738 101.265 125.1V121.927C101.265 121.247 101.37 120.667 101.581 120.187C101.798 119.706 102.109 119.343 102.513 119.097C102.917 118.845 103.404 118.719 103.972 118.719C104.552 118.719 105.044 118.836 105.448 119.07C105.859 119.299 106.169 119.636 106.38 120.081C106.597 120.521 106.705 121.054 106.705 121.681V124.019H102.24V122.744H105.273V121.716C105.273 121.188 105.158 120.781 104.93 120.494C104.707 120.207 104.388 120.063 103.972 120.063C103.568 120.063 103.254 120.216 103.031 120.521C102.809 120.825 102.697 121.262 102.697 121.83V125.144C102.697 125.653 102.815 126.052 103.049 126.339C103.283 126.62 103.614 126.761 104.042 126.761C104.441 126.761 104.748 126.652 104.965 126.436C105.188 126.213 105.299 125.902 105.299 125.504V125.442H106.732V125.504C106.732 126.342 106.497 126.989 106.029 127.446C105.56 127.903 104.898 128.132 104.042 128.132ZM110.289 118.877H111.757V128H110.289V118.877ZM114.464 120.143C114.441 120.143 114.414 120.143 114.385 120.143C114.356 120.143 114.321 120.143 114.28 120.143C113.512 120.143 112.906 120.327 112.46 120.696C112.021 121.065 111.787 121.578 111.757 122.234L111.573 120.468C111.895 119.917 112.305 119.489 112.803 119.185C113.307 118.874 113.861 118.719 114.464 118.719V120.143ZM117.802 115.528H119.27V116.996H117.802V115.528ZM117.802 118.877H119.27V128H117.802V118.877ZM123.083 118.877H124.551V128H123.083V118.877ZM127.187 121.61C127.187 121.101 127.079 120.72 126.862 120.468C126.645 120.21 126.314 120.081 125.869 120.081C125.429 120.081 125.098 120.219 124.876 120.494C124.659 120.764 124.551 121.174 124.551 121.725L124.366 120.415C124.577 119.847 124.861 119.422 125.219 119.141C125.582 118.859 126.01 118.719 126.502 118.719C127.211 118.719 127.747 118.941 128.11 119.387C128.473 119.832 128.655 120.491 128.655 121.364V128H127.187V121.61ZM134.92 131.709C134.07 131.709 133.414 131.478 132.951 131.015C132.488 130.558 132.257 129.916 132.257 129.09V128.976H133.725V129.09C133.725 129.5 133.833 129.816 134.05 130.039C134.272 130.268 134.583 130.382 134.981 130.382C135.38 130.382 135.688 130.273 135.904 130.057C136.127 129.84 136.238 129.532 136.238 129.134V118.877H137.697V129.134C137.697 129.679 137.589 130.142 137.372 130.522C137.155 130.909 136.839 131.202 136.423 131.401C136.007 131.606 135.506 131.709 134.92 131.709ZM134.357 128.158C133.906 128.158 133.52 128.053 133.197 127.842C132.881 127.625 132.638 127.312 132.468 126.901C132.298 126.491 132.213 125.999 132.213 125.425V121.549C132.213 120.951 132.298 120.441 132.468 120.02C132.638 119.592 132.881 119.27 133.197 119.053C133.52 118.83 133.906 118.719 134.357 118.719C134.791 118.719 135.187 118.859 135.544 119.141C135.907 119.422 136.2 119.817 136.423 120.327L136.238 121.575C136.238 121.247 136.188 120.969 136.089 120.74C135.989 120.506 135.843 120.327 135.649 120.204C135.456 120.081 135.225 120.02 134.955 120.02C134.551 120.02 134.237 120.157 134.015 120.433C133.792 120.708 133.681 121.092 133.681 121.584V125.416C133.681 125.867 133.792 126.219 134.015 126.471C134.237 126.723 134.551 126.849 134.955 126.849C135.225 126.849 135.456 126.79 135.649 126.673C135.843 126.556 135.989 126.386 136.089 126.163C136.188 125.935 136.238 125.662 136.238 125.346L136.361 126.567C136.191 127.071 135.931 127.464 135.579 127.745C135.233 128.021 134.826 128.158 134.357 128.158Z" fill="white"/>
<defs>
<linearGradient id="paint0_linear_7082_10" x1="110" y1="4.78406e-07" x2="7.49999" y2="190" gradientUnits="userSpaceOnUse">
<stop stop-color="#004AAD"/>
<stop offset="0.61" stop-color="#004AAD" stop-opacity="0.91"/>
<stop offset="0.84" stop-color="#3D87EB"/>
<stop offset="1" stop-color="#79B2FF"/>
</linearGradient>
</defs>
</svg>
