<svg xmlns="http://www.w3.org/2000/svg" xmlns:xlink="http://www.w3.org/1999/xlink" width="96" zoomAndPan="magnify" viewBox="0 0 72 72" height="96" preserveAspectRatio="xMidYMid meet" version="1.0"><defs><g/></defs><rect x="-7.2" width="86.4" fill="#ffffff" y="-7.2" height="86.4" fill-opacity="1"/><rect x="-7.2" width="86.4" fill="#2e78db" y="-7.2" height="86.4" fill-opacity="1"/><g fill="#ffffff" fill-opacity="1"><g transform="translate(6.567156, 38.088928)"><g><path d="M 14.640625 -12.5625 C 14.640625 -11.519531 14.285156 -10.625 13.578125 -9.875 C 12.867188 -9.125 11.789062 -8.570312 10.34375 -8.21875 L 14.265625 -3.34375 C 14.742188 -2.75 15.148438 -2.273438 15.484375 -1.921875 C 15.816406 -1.566406 16.222656 -1.242188 16.703125 -0.953125 C 17.191406 -0.660156 17.734375 -0.488281 18.328125 -0.4375 L 18.328125 0 L 13.90625 0 L 7.5 -7.96875 L 5.859375 -7.96875 L 5.859375 -2.453125 C 5.859375 -1.722656 6.039062 -1.203125 6.40625 -0.890625 C 6.78125 -0.585938 7.363281 -0.4375 8.15625 -0.4375 L 8.265625 -0.4375 L 8.265625 0 L 0.84375 0 L 0.84375 -0.4375 C 1.632812 -0.4375 2.222656 -0.578125 2.609375 -0.859375 C 2.992188 -1.140625 3.1875 -1.644531 3.1875 -2.375 L 3.1875 -14.671875 C 3.1875 -15.328125 2.992188 -15.800781 2.609375 -16.09375 C 2.222656 -16.394531 1.632812 -16.546875 0.84375 -16.546875 L 0.84375 -17 L 8.78125 -17 C 10.394531 -17 11.773438 -16.632812 12.921875 -15.90625 C 14.066406 -15.175781 14.640625 -14.0625 14.640625 -12.5625 Z M 5.859375 -15.6875 L 5.859375 -8.8125 L 6.484375 -8.8125 C 8.148438 -8.8125 9.410156 -9.132812 10.265625 -9.78125 C 11.117188 -10.4375 11.546875 -11.335938 11.546875 -12.484375 C 11.546875 -13.492188 11.21875 -14.351562 10.5625 -15.0625 C 9.914062 -15.769531 9 -16.125 7.8125 -16.125 C 7.164062 -16.125 6.515625 -15.976562 5.859375 -15.6875 Z M 5.859375 -15.6875 "/></g></g></g><g fill="#ffffff" fill-opacity="1"><g transform="translate(24.377234, 38.088928)"><g><path d="M 3.359375 -2.40625 C 3.742188 -2.40625 4.066406 -2.269531 4.328125 -2 C 4.585938 -1.738281 4.71875 -1.414062 4.71875 -1.03125 C 4.71875 -0.65625 4.585938 -0.332031 4.328125 -0.0625 C 4.066406 0.207031 3.742188 0.34375 3.359375 0.34375 C 2.984375 0.34375 2.660156 0.207031 2.390625 -0.0625 C 2.117188 -0.332031 1.984375 -0.65625 1.984375 -1.03125 C 1.984375 -1.414062 2.117188 -1.738281 2.390625 -2 C 2.660156 -2.269531 2.984375 -2.40625 3.359375 -2.40625 Z M 3.359375 -2.40625 "/></g></g></g><g fill="#ffffff" fill-opacity="1"><g transform="translate(29.819051, 38.088928)"><g><path d="M 10.3125 -17.359375 C 11.132812 -17.359375 11.847656 -17.28125 12.453125 -17.125 C 13.054688 -16.96875 13.640625 -16.765625 14.203125 -16.515625 C 14.660156 -16.335938 14.957031 -16.25 15.09375 -16.25 C 15.289062 -16.25 15.476562 -16.351562 15.65625 -16.5625 C 15.832031 -16.769531 15.957031 -17.035156 16.03125 -17.359375 L 16.453125 -17.359375 L 16.875 -11.625 L 16.453125 -11.625 C 16.296875 -12.632812 15.925781 -13.5 15.34375 -14.21875 C 14.757812 -14.945312 14.039062 -15.492188 13.1875 -15.859375 C 12.34375 -16.234375 11.453125 -16.421875 10.515625 -16.421875 C 8.585938 -16.421875 7.039062 -15.734375 5.875 -14.359375 C 4.707031 -12.984375 4.125 -10.898438 4.125 -8.109375 C 4.125 -6.460938 4.441406 -5.082031 5.078125 -3.96875 C 5.710938 -2.851562 6.546875 -2.023438 7.578125 -1.484375 C 8.609375 -0.953125 9.710938 -0.6875 10.890625 -0.6875 C 12.085938 -0.6875 13.226562 -0.988281 14.3125 -1.59375 C 15.40625 -2.207031 16.257812 -3.03125 16.875 -4.0625 L 17.234375 -3.8125 C 15.609375 -1.019531 13.203125 0.375 10.015625 0.375 C 8.367188 0.375 6.859375 -0.00390625 5.484375 -0.765625 C 4.117188 -1.535156 3.035156 -2.582031 2.234375 -3.90625 C 1.429688 -5.226562 1.03125 -6.679688 1.03125 -8.265625 C 1.03125 -9.929688 1.441406 -11.457031 2.265625 -12.84375 C 3.097656 -14.238281 4.222656 -15.335938 5.640625 -16.140625 C 7.054688 -16.953125 8.613281 -17.359375 10.3125 -17.359375 Z M 10.3125 -17.359375 "/></g></g></g><g fill="#ffffff" fill-opacity="1"><g transform="translate(46.342835, 38.088928)"><g><path d="M 3.359375 -2.40625 C 3.742188 -2.40625 4.066406 -2.269531 4.328125 -2 C 4.585938 -1.738281 4.71875 -1.414062 4.71875 -1.03125 C 4.71875 -0.65625 4.585938 -0.332031 4.328125 -0.0625 C 4.066406 0.207031 3.742188 0.34375 3.359375 0.34375 C 2.984375 0.34375 2.660156 0.207031 2.390625 -0.0625 C 2.117188 -0.332031 1.984375 -0.65625 1.984375 -1.03125 C 1.984375 -1.414062 2.117188 -1.738281 2.390625 -2 C 2.660156 -2.269531 2.984375 -2.40625 3.359375 -2.40625 Z M 3.359375 -2.40625 "/></g></g></g><g fill="#ffffff" fill-opacity="1"><g transform="translate(51.784652, 38.088928)"><g><path d="M 6.234375 -17.359375 C 6.796875 -17.359375 7.28125 -17.304688 7.6875 -17.203125 C 8.101562 -17.097656 8.523438 -16.953125 8.953125 -16.765625 C 9.171875 -16.679688 9.378906 -16.609375 9.578125 -16.546875 C 9.785156 -16.484375 9.972656 -16.453125 10.140625 -16.453125 C 10.535156 -16.453125 10.847656 -16.753906 11.078125 -17.359375 L 11.546875 -17.359375 L 11.546875 -11.71875 L 11.078125 -11.71875 C 10.992188 -12.59375 10.734375 -13.390625 10.296875 -14.109375 C 9.859375 -14.828125 9.3125 -15.390625 8.65625 -15.796875 C 8.007812 -16.210938 7.316406 -16.421875 6.578125 -16.421875 C 5.773438 -16.421875 5.082031 -16.175781 4.5 -15.6875 C 3.925781 -15.207031 3.640625 -14.617188 3.640625 -13.921875 C 3.640625 -13.117188 4.035156 -12.421875 4.828125 -11.828125 C 5.390625 -11.410156 6.171875 -10.914062 7.171875 -10.34375 C 8.066406 -9.789062 8.8125 -9.316406 9.40625 -8.921875 C 10 -8.523438 10.550781 -8.097656 11.0625 -7.640625 C 11.519531 -7.191406 11.882812 -6.679688 12.15625 -6.109375 C 12.425781 -5.535156 12.5625 -4.941406 12.5625 -4.328125 C 12.5625 -3.484375 12.332031 -2.695312 11.875 -1.96875 C 11.414062 -1.25 10.785156 -0.675781 9.984375 -0.25 C 9.179688 0.164062 8.300781 0.375 7.34375 0.375 C 6.738281 0.375 6.195312 0.316406 5.71875 0.203125 C 5.25 0.0976562 4.757812 -0.0390625 4.25 -0.21875 C 3.6875 -0.414062 3.269531 -0.515625 3 -0.515625 C 2.550781 -0.515625 2.210938 -0.21875 1.984375 0.375 L 1.53125 0.375 L 1.53125 -5.34375 L 1.984375 -5.34375 C 2.265625 -3.875 2.816406 -2.707031 3.640625 -1.84375 C 4.472656 -0.988281 5.550781 -0.5625 6.875 -0.5625 C 7.8125 -0.5625 8.582031 -0.816406 9.1875 -1.328125 C 9.800781 -1.847656 10.109375 -2.492188 10.109375 -3.265625 C 10.109375 -3.660156 10.035156 -4.019531 9.890625 -4.34375 C 9.742188 -4.675781 9.5 -5.035156 9.15625 -5.421875 C 8.84375 -5.742188 8.394531 -6.097656 7.8125 -6.484375 C 7.238281 -6.878906 6.472656 -7.363281 5.515625 -7.9375 C 4.703125 -8.4375 4.082031 -8.828125 3.65625 -9.109375 C 3.226562 -9.398438 2.910156 -9.65625 2.703125 -9.875 C 1.859375 -10.726562 1.4375 -11.753906 1.4375 -12.953125 C 1.4375 -13.785156 1.644531 -14.535156 2.0625 -15.203125 C 2.488281 -15.867188 3.0625 -16.394531 3.78125 -16.78125 C 4.507812 -17.164062 5.328125 -17.359375 6.234375 -17.359375 Z M 6.234375 -17.359375 "/></g></g></g><g fill="#ffffff" fill-opacity="1"><g transform="translate(12.929686, 49.76645)"><g><path d="M 5.296875 -4.8125 L 5.140625 -4.8125 C 5.085938 -5.15625 4.976562 -5.410156 4.8125 -5.578125 C 4.65625 -5.742188 4.429688 -5.828125 4.140625 -5.828125 L 2.1875 -5.828125 L 2.1875 -3.4375 L 3.78125 -3.4375 C 4.070312 -3.4375 4.273438 -3.507812 4.390625 -3.65625 C 4.515625 -3.800781 4.582031 -4.03125 4.59375 -4.34375 L 4.75 -4.34375 L 4.75 -2.15625 L 4.59375 -2.15625 C 4.59375 -2.46875 4.53125 -2.695312 4.40625 -2.84375 C 4.289062 -3 4.078125 -3.078125 3.765625 -3.078125 L 2.1875 -3.078125 L 2.1875 -0.8125 C 2.1875 -0.507812 2.304688 -0.359375 2.546875 -0.359375 L 4.125 -0.359375 C 4.457031 -0.359375 4.75 -0.457031 5 -0.65625 C 5.25 -0.863281 5.453125 -1.15625 5.609375 -1.53125 L 5.8125 -1.53125 L 5.296875 0 L 0.328125 0 L 0.328125 -0.15625 C 0.640625 -0.15625 0.863281 -0.207031 1 -0.3125 C 1.144531 -0.425781 1.21875 -0.625 1.21875 -0.90625 L 1.21875 -5.34375 C 1.21875 -5.582031 1.144531 -5.753906 1 -5.859375 C 0.863281 -5.960938 0.640625 -6.015625 0.328125 -6.015625 L 0.328125 -6.1875 L 5.234375 -6.1875 Z M 5.296875 -4.8125 "/></g></g></g><g fill="#ffffff" fill-opacity="1"><g transform="translate(18.93273, 49.76645)"><g><path d="M 1.609375 -3.390625 C 1.921875 -3.722656 2.175781 -3.953125 2.375 -4.078125 C 2.570312 -4.210938 2.789062 -4.28125 3.03125 -4.28125 C 3.289062 -4.28125 3.503906 -4.207031 3.671875 -4.0625 C 3.835938 -3.925781 3.953125 -3.753906 4.015625 -3.546875 C 4.085938 -3.335938 4.125 -3.132812 4.125 -2.9375 L 4.125 -0.953125 C 4.125 -0.648438 4.171875 -0.445312 4.265625 -0.34375 C 4.367188 -0.238281 4.535156 -0.175781 4.765625 -0.15625 L 4.765625 0 L 2.65625 0 L 2.65625 -0.15625 C 2.851562 -0.15625 3.003906 -0.175781 3.109375 -0.21875 C 3.210938 -0.257812 3.285156 -0.335938 3.328125 -0.453125 C 3.367188 -0.566406 3.390625 -0.734375 3.390625 -0.953125 L 3.390625 -2.984375 C 3.390625 -3.171875 3.328125 -3.34375 3.203125 -3.5 C 3.078125 -3.664062 2.90625 -3.75 2.6875 -3.75 C 2.5 -3.75 2.320312 -3.695312 2.15625 -3.59375 C 1.988281 -3.5 1.804688 -3.347656 1.609375 -3.140625 L 1.609375 -0.953125 C 1.609375 -0.640625 1.660156 -0.429688 1.765625 -0.328125 C 1.867188 -0.222656 2.046875 -0.164062 2.296875 -0.15625 L 2.296875 0 L 0.21875 0 L 0.21875 -0.15625 C 0.40625 -0.175781 0.546875 -0.207031 0.640625 -0.25 C 0.734375 -0.300781 0.796875 -0.378906 0.828125 -0.484375 C 0.859375 -0.585938 0.875 -0.734375 0.875 -0.921875 L 0.875 -3.171875 C 0.875 -3.304688 0.84375 -3.425781 0.78125 -3.53125 C 0.71875 -3.632812 0.625 -3.6875 0.5 -3.6875 C 0.4375 -3.6875 0.378906 -3.675781 0.328125 -3.65625 C 0.273438 -3.632812 0.238281 -3.617188 0.21875 -3.609375 L 0.15625 -3.78125 L 1.453125 -4.28125 L 1.609375 -4.28125 Z M 1.609375 -3.390625 "/></g></g></g><g fill="#ffffff" fill-opacity="1"><g transform="translate(23.90077, 49.76645)"><g><path d="M 2.28125 -4.28125 C 2.625 -4.28125 2.9375 -4.191406 3.21875 -4.015625 L 4.1875 -4.015625 C 4.269531 -4.015625 4.316406 -4 4.328125 -3.96875 C 4.347656 -3.945312 4.359375 -3.882812 4.359375 -3.78125 C 4.359375 -3.695312 4.351562 -3.644531 4.34375 -3.625 C 4.332031 -3.601562 4.296875 -3.59375 4.234375 -3.59375 L 3.5625 -3.59375 C 3.644531 -3.457031 3.703125 -3.332031 3.734375 -3.21875 C 3.765625 -3.101562 3.78125 -2.972656 3.78125 -2.828125 C 3.78125 -2.546875 3.710938 -2.296875 3.578125 -2.078125 C 3.453125 -1.859375 3.269531 -1.6875 3.03125 -1.5625 C 2.800781 -1.445312 2.535156 -1.390625 2.234375 -1.390625 C 2.035156 -1.390625 1.835938 -1.414062 1.640625 -1.46875 C 1.398438 -1.257812 1.28125 -1.082031 1.28125 -0.9375 C 1.28125 -0.851562 1.320312 -0.785156 1.40625 -0.734375 C 1.488281 -0.691406 1.671875 -0.671875 1.953125 -0.671875 L 2.984375 -0.671875 C 3.335938 -0.671875 3.648438 -0.59375 3.921875 -0.4375 C 4.191406 -0.28125 4.328125 -0.0507812 4.328125 0.25 C 4.328125 0.539062 4.21875 0.8125 4 1.0625 C 3.789062 1.320312 3.503906 1.523438 3.140625 1.671875 C 2.785156 1.828125 2.40625 1.90625 2 1.90625 C 1.71875 1.90625 1.441406 1.863281 1.171875 1.78125 C 0.910156 1.707031 0.695312 1.601562 0.53125 1.46875 C 0.363281 1.332031 0.28125 1.195312 0.28125 1.0625 C 0.28125 0.945312 0.332031 0.804688 0.4375 0.640625 C 0.550781 0.484375 0.785156 0.234375 1.140625 -0.109375 C 0.835938 -0.203125 0.6875 -0.351562 0.6875 -0.5625 C 0.6875 -0.71875 0.75 -0.878906 0.875 -1.046875 C 1.007812 -1.210938 1.1875 -1.382812 1.40625 -1.5625 C 1.164062 -1.6875 0.976562 -1.859375 0.84375 -2.078125 C 0.71875 -2.296875 0.65625 -2.535156 0.65625 -2.796875 C 0.65625 -3.078125 0.722656 -3.328125 0.859375 -3.546875 C 1.003906 -3.773438 1.203125 -3.953125 1.453125 -4.078125 C 1.703125 -4.210938 1.976562 -4.28125 2.28125 -4.28125 Z M 1.421875 -3.171875 C 1.421875 -2.953125 1.453125 -2.722656 1.515625 -2.484375 C 1.578125 -2.242188 1.675781 -2.035156 1.8125 -1.859375 C 1.957031 -1.691406 2.140625 -1.609375 2.359375 -1.609375 C 2.554688 -1.609375 2.71875 -1.703125 2.84375 -1.890625 C 2.96875 -2.078125 3.03125 -2.320312 3.03125 -2.625 C 3.03125 -2.800781 2.992188 -3 2.921875 -3.21875 C 2.859375 -3.4375 2.753906 -3.625 2.609375 -3.78125 C 2.472656 -3.9375 2.300781 -4.015625 2.09375 -4.015625 C 1.90625 -4.015625 1.742188 -3.9375 1.609375 -3.78125 C 1.484375 -3.632812 1.421875 -3.429688 1.421875 -3.171875 Z M 2.796875 0.015625 L 2.453125 0.015625 C 2.179688 0.015625 1.957031 0.0078125 1.78125 0 C 1.613281 -0.0078125 1.46875 -0.0351562 1.34375 -0.078125 C 1.207031 0.078125 1.101562 0.21875 1.03125 0.34375 C 0.96875 0.46875 0.9375 0.585938 0.9375 0.703125 C 0.9375 0.921875 1.085938 1.085938 1.390625 1.203125 C 1.691406 1.316406 2.050781 1.375 2.46875 1.375 C 2.769531 1.375 3.039062 1.332031 3.28125 1.25 C 3.519531 1.175781 3.707031 1.066406 3.84375 0.921875 C 3.976562 0.785156 4.046875 0.632812 4.046875 0.46875 C 4.046875 0.28125 3.945312 0.15625 3.75 0.09375 C 3.550781 0.0390625 3.234375 0.015625 2.796875 0.015625 Z M 2.796875 0.015625 "/></g></g></g><g fill="#ffffff" fill-opacity="1"><g transform="translate(28.400805, 49.76645)"><g><path d="M 1.21875 -6.484375 C 1.351562 -6.484375 1.460938 -6.4375 1.546875 -6.34375 C 1.640625 -6.25 1.6875 -6.140625 1.6875 -6.015625 C 1.6875 -5.890625 1.640625 -5.78125 1.546875 -5.6875 C 1.460938 -5.59375 1.351562 -5.546875 1.21875 -5.546875 C 1.09375 -5.546875 0.984375 -5.59375 0.890625 -5.6875 C 0.804688 -5.78125 0.765625 -5.890625 0.765625 -6.015625 C 0.765625 -6.140625 0.804688 -6.25 0.890625 -6.34375 C 0.984375 -6.4375 1.09375 -6.484375 1.21875 -6.484375 Z M 1.625 -0.9375 C 1.625 -0.644531 1.671875 -0.441406 1.765625 -0.328125 C 1.859375 -0.222656 2.015625 -0.164062 2.234375 -0.15625 L 2.234375 0 L 0.203125 0 L 0.203125 -0.15625 C 0.453125 -0.15625 0.625 -0.210938 0.71875 -0.328125 C 0.820312 -0.441406 0.875 -0.648438 0.875 -0.953125 L 0.875 -3.125 C 0.875 -3.289062 0.835938 -3.425781 0.765625 -3.53125 C 0.703125 -3.632812 0.59375 -3.6875 0.4375 -3.6875 C 0.375 -3.6875 0.316406 -3.671875 0.265625 -3.640625 L 0.203125 -3.796875 L 1.453125 -4.28125 L 1.625 -4.28125 Z M 1.625 -0.9375 "/></g></g></g><g fill="#ffffff" fill-opacity="1"><g transform="translate(30.839827, 49.76645)"><g><path d="M 1.609375 -3.390625 C 1.921875 -3.722656 2.175781 -3.953125 2.375 -4.078125 C 2.570312 -4.210938 2.789062 -4.28125 3.03125 -4.28125 C 3.289062 -4.28125 3.503906 -4.207031 3.671875 -4.0625 C 3.835938 -3.925781 3.953125 -3.753906 4.015625 -3.546875 C 4.085938 -3.335938 4.125 -3.132812 4.125 -2.9375 L 4.125 -0.953125 C 4.125 -0.648438 4.171875 -0.445312 4.265625 -0.34375 C 4.367188 -0.238281 4.535156 -0.175781 4.765625 -0.15625 L 4.765625 0 L 2.65625 0 L 2.65625 -0.15625 C 2.851562 -0.15625 3.003906 -0.175781 3.109375 -0.21875 C 3.210938 -0.257812 3.285156 -0.335938 3.328125 -0.453125 C 3.367188 -0.566406 3.390625 -0.734375 3.390625 -0.953125 L 3.390625 -2.984375 C 3.390625 -3.171875 3.328125 -3.34375 3.203125 -3.5 C 3.078125 -3.664062 2.90625 -3.75 2.6875 -3.75 C 2.5 -3.75 2.320312 -3.695312 2.15625 -3.59375 C 1.988281 -3.5 1.804688 -3.347656 1.609375 -3.140625 L 1.609375 -0.953125 C 1.609375 -0.640625 1.660156 -0.429688 1.765625 -0.328125 C 1.867188 -0.222656 2.046875 -0.164062 2.296875 -0.15625 L 2.296875 0 L 0.21875 0 L 0.21875 -0.15625 C 0.40625 -0.175781 0.546875 -0.207031 0.640625 -0.25 C 0.734375 -0.300781 0.796875 -0.378906 0.828125 -0.484375 C 0.859375 -0.585938 0.875 -0.734375 0.875 -0.921875 L 0.875 -3.171875 C 0.875 -3.304688 0.84375 -3.425781 0.78125 -3.53125 C 0.71875 -3.632812 0.625 -3.6875 0.5 -3.6875 C 0.4375 -3.6875 0.378906 -3.675781 0.328125 -3.65625 C 0.273438 -3.632812 0.238281 -3.617188 0.21875 -3.609375 L 0.15625 -3.78125 L 1.453125 -4.28125 L 1.609375 -4.28125 Z M 1.609375 -3.390625 "/></g></g></g><g fill="#ffffff" fill-opacity="1"><g transform="translate(35.807867, 49.76645)"><g><path d="M 2.109375 -4.28125 C 2.578125 -4.28125 2.957031 -4.125 3.25 -3.8125 C 3.539062 -3.5 3.6875 -3.09375 3.6875 -2.59375 L 0.859375 -2.59375 L 0.859375 -2.46875 C 0.859375 -2.15625 0.921875 -1.851562 1.046875 -1.5625 C 1.171875 -1.269531 1.347656 -1.03125 1.578125 -0.84375 C 1.804688 -0.664062 2.066406 -0.578125 2.359375 -0.578125 C 2.929688 -0.578125 3.332031 -0.894531 3.5625 -1.53125 L 3.6875 -1.46875 C 3.59375 -0.976562 3.394531 -0.585938 3.09375 -0.296875 C 2.789062 -0.015625 2.429688 0.125 2.015625 0.125 C 1.703125 0.125 1.410156 0.046875 1.140625 -0.109375 C 0.878906 -0.273438 0.664062 -0.519531 0.5 -0.84375 C 0.332031 -1.164062 0.25 -1.5625 0.25 -2.03125 C 0.25 -2.46875 0.328125 -2.859375 0.484375 -3.203125 C 0.640625 -3.546875 0.859375 -3.8125 1.140625 -4 C 1.421875 -4.1875 1.742188 -4.28125 2.109375 -4.28125 Z M 1.859375 -3.953125 C 1.609375 -3.953125 1.390625 -3.851562 1.203125 -3.65625 C 1.023438 -3.457031 0.914062 -3.195312 0.875 -2.875 L 2.765625 -2.875 C 2.753906 -3.195312 2.671875 -3.457031 2.515625 -3.65625 C 2.359375 -3.851562 2.140625 -3.953125 1.859375 -3.953125 Z M 1.859375 -3.953125 "/></g></g></g><g fill="#ffffff" fill-opacity="1"><g transform="translate(39.749899, 49.76645)"><g><path d="M 2.109375 -4.28125 C 2.578125 -4.28125 2.957031 -4.125 3.25 -3.8125 C 3.539062 -3.5 3.6875 -3.09375 3.6875 -2.59375 L 0.859375 -2.59375 L 0.859375 -2.46875 C 0.859375 -2.15625 0.921875 -1.851562 1.046875 -1.5625 C 1.171875 -1.269531 1.347656 -1.03125 1.578125 -0.84375 C 1.804688 -0.664062 2.066406 -0.578125 2.359375 -0.578125 C 2.929688 -0.578125 3.332031 -0.894531 3.5625 -1.53125 L 3.6875 -1.46875 C 3.59375 -0.976562 3.394531 -0.585938 3.09375 -0.296875 C 2.789062 -0.015625 2.429688 0.125 2.015625 0.125 C 1.703125 0.125 1.410156 0.046875 1.140625 -0.109375 C 0.878906 -0.273438 0.664062 -0.519531 0.5 -0.84375 C 0.332031 -1.164062 0.25 -1.5625 0.25 -2.03125 C 0.25 -2.46875 0.328125 -2.859375 0.484375 -3.203125 C 0.640625 -3.546875 0.859375 -3.8125 1.140625 -4 C 1.421875 -4.1875 1.742188 -4.28125 2.109375 -4.28125 Z M 1.859375 -3.953125 C 1.609375 -3.953125 1.390625 -3.851562 1.203125 -3.65625 C 1.023438 -3.457031 0.914062 -3.195312 0.875 -2.875 L 2.765625 -2.875 C 2.753906 -3.195312 2.671875 -3.457031 2.515625 -3.65625 C 2.359375 -3.851562 2.140625 -3.953125 1.859375 -3.953125 Z M 1.859375 -3.953125 "/></g></g></g><g fill="#ffffff" fill-opacity="1"><g transform="translate(43.69193, 49.76645)"><g><path d="M 1.671875 -3.421875 L 1.6875 -3.421875 C 1.84375 -3.703125 2.007812 -3.914062 2.1875 -4.0625 C 2.375 -4.207031 2.582031 -4.28125 2.8125 -4.28125 C 2.96875 -4.28125 3.097656 -4.226562 3.203125 -4.125 C 3.304688 -4.03125 3.359375 -3.910156 3.359375 -3.765625 C 3.359375 -3.648438 3.316406 -3.550781 3.234375 -3.46875 C 3.148438 -3.394531 3.0625 -3.359375 2.96875 -3.359375 C 2.875 -3.359375 2.800781 -3.375 2.75 -3.40625 C 2.695312 -3.4375 2.644531 -3.476562 2.59375 -3.53125 C 2.582031 -3.539062 2.5625 -3.5625 2.53125 -3.59375 C 2.5 -3.625 2.46875 -3.644531 2.4375 -3.65625 C 2.40625 -3.675781 2.367188 -3.6875 2.328125 -3.6875 C 2.191406 -3.6875 2.070312 -3.628906 1.96875 -3.515625 C 1.875 -3.398438 1.773438 -3.25 1.671875 -3.0625 L 1.671875 -0.953125 C 1.671875 -0.722656 1.691406 -0.550781 1.734375 -0.4375 C 1.785156 -0.320312 1.863281 -0.242188 1.96875 -0.203125 C 2.082031 -0.171875 2.242188 -0.15625 2.453125 -0.15625 L 2.453125 0 L 0.25 0 L 0.25 -0.15625 L 0.28125 -0.15625 C 0.507812 -0.15625 0.671875 -0.207031 0.765625 -0.3125 C 0.867188 -0.425781 0.921875 -0.628906 0.921875 -0.921875 L 0.921875 -2.96875 C 0.921875 -3.25 0.890625 -3.429688 0.828125 -3.515625 C 0.773438 -3.609375 0.671875 -3.65625 0.515625 -3.65625 C 0.429688 -3.65625 0.359375 -3.632812 0.296875 -3.59375 L 0.25 -3.75 L 1.5 -4.28125 L 1.671875 -4.28125 Z M 1.671875 -3.421875 "/></g></g></g><g fill="#ffffff" fill-opacity="1"><g transform="translate(47.156949, 49.76645)"><g><path d="M 1.21875 -6.484375 C 1.351562 -6.484375 1.460938 -6.4375 1.546875 -6.34375 C 1.640625 -6.25 1.6875 -6.140625 1.6875 -6.015625 C 1.6875 -5.890625 1.640625 -5.78125 1.546875 -5.6875 C 1.460938 -5.59375 1.351562 -5.546875 1.21875 -5.546875 C 1.09375 -5.546875 0.984375 -5.59375 0.890625 -5.6875 C 0.804688 -5.78125 0.765625 -5.890625 0.765625 -6.015625 C 0.765625 -6.140625 0.804688 -6.25 0.890625 -6.34375 C 0.984375 -6.4375 1.09375 -6.484375 1.21875 -6.484375 Z M 1.625 -0.9375 C 1.625 -0.644531 1.671875 -0.441406 1.765625 -0.328125 C 1.859375 -0.222656 2.015625 -0.164062 2.234375 -0.15625 L 2.234375 0 L 0.203125 0 L 0.203125 -0.15625 C 0.453125 -0.15625 0.625 -0.210938 0.71875 -0.328125 C 0.820312 -0.441406 0.875 -0.648438 0.875 -0.953125 L 0.875 -3.125 C 0.875 -3.289062 0.835938 -3.425781 0.765625 -3.53125 C 0.703125 -3.632812 0.59375 -3.6875 0.4375 -3.6875 C 0.375 -3.6875 0.316406 -3.671875 0.265625 -3.640625 L 0.203125 -3.796875 L 1.453125 -4.28125 L 1.625 -4.28125 Z M 1.625 -0.9375 "/></g></g></g><g fill="#ffffff" fill-opacity="1"><g transform="translate(49.595971, 49.76645)"><g><path d="M 1.609375 -3.390625 C 1.921875 -3.722656 2.175781 -3.953125 2.375 -4.078125 C 2.570312 -4.210938 2.789062 -4.28125 3.03125 -4.28125 C 3.289062 -4.28125 3.503906 -4.207031 3.671875 -4.0625 C 3.835938 -3.925781 3.953125 -3.753906 4.015625 -3.546875 C 4.085938 -3.335938 4.125 -3.132812 4.125 -2.9375 L 4.125 -0.953125 C 4.125 -0.648438 4.171875 -0.445312 4.265625 -0.34375 C 4.367188 -0.238281 4.535156 -0.175781 4.765625 -0.15625 L 4.765625 0 L 2.65625 0 L 2.65625 -0.15625 C 2.851562 -0.15625 3.003906 -0.175781 3.109375 -0.21875 C 3.210938 -0.257812 3.285156 -0.335938 3.328125 -0.453125 C 3.367188 -0.566406 3.390625 -0.734375 3.390625 -0.953125 L 3.390625 -2.984375 C 3.390625 -3.171875 3.328125 -3.34375 3.203125 -3.5 C 3.078125 -3.664062 2.90625 -3.75 2.6875 -3.75 C 2.5 -3.75 2.320312 -3.695312 2.15625 -3.59375 C 1.988281 -3.5 1.804688 -3.347656 1.609375 -3.140625 L 1.609375 -0.953125 C 1.609375 -0.640625 1.660156 -0.429688 1.765625 -0.328125 C 1.867188 -0.222656 2.046875 -0.164062 2.296875 -0.15625 L 2.296875 0 L 0.21875 0 L 0.21875 -0.15625 C 0.40625 -0.175781 0.546875 -0.207031 0.640625 -0.25 C 0.734375 -0.300781 0.796875 -0.378906 0.828125 -0.484375 C 0.859375 -0.585938 0.875 -0.734375 0.875 -0.921875 L 0.875 -3.171875 C 0.875 -3.304688 0.84375 -3.425781 0.78125 -3.53125 C 0.71875 -3.632812 0.625 -3.6875 0.5 -3.6875 C 0.4375 -3.6875 0.378906 -3.675781 0.328125 -3.65625 C 0.273438 -3.632812 0.238281 -3.617188 0.21875 -3.609375 L 0.15625 -3.78125 L 1.453125 -4.28125 L 1.609375 -4.28125 Z M 1.609375 -3.390625 "/></g></g></g><g fill="#ffffff" fill-opacity="1"><g transform="translate(54.564012, 49.76645)"><g><path d="M 2.28125 -4.28125 C 2.625 -4.28125 2.9375 -4.191406 3.21875 -4.015625 L 4.1875 -4.015625 C 4.269531 -4.015625 4.316406 -4 4.328125 -3.96875 C 4.347656 -3.945312 4.359375 -3.882812 4.359375 -3.78125 C 4.359375 -3.695312 4.351562 -3.644531 4.34375 -3.625 C 4.332031 -3.601562 4.296875 -3.59375 4.234375 -3.59375 L 3.5625 -3.59375 C 3.644531 -3.457031 3.703125 -3.332031 3.734375 -3.21875 C 3.765625 -3.101562 3.78125 -2.972656 3.78125 -2.828125 C 3.78125 -2.546875 3.710938 -2.296875 3.578125 -2.078125 C 3.453125 -1.859375 3.269531 -1.6875 3.03125 -1.5625 C 2.800781 -1.445312 2.535156 -1.390625 2.234375 -1.390625 C 2.035156 -1.390625 1.835938 -1.414062 1.640625 -1.46875 C 1.398438 -1.257812 1.28125 -1.082031 1.28125 -0.9375 C 1.28125 -0.851562 1.320312 -0.785156 1.40625 -0.734375 C 1.488281 -0.691406 1.671875 -0.671875 1.953125 -0.671875 L 2.984375 -0.671875 C 3.335938 -0.671875 3.648438 -0.59375 3.921875 -0.4375 C 4.191406 -0.28125 4.328125 -0.0507812 4.328125 0.25 C 4.328125 0.539062 4.21875 0.8125 4 1.0625 C 3.789062 1.320312 3.503906 1.523438 3.140625 1.671875 C 2.785156 1.828125 2.40625 1.90625 2 1.90625 C 1.71875 1.90625 1.441406 1.863281 1.171875 1.78125 C 0.910156 1.707031 0.695312 1.601562 0.53125 1.46875 C 0.363281 1.332031 0.28125 1.195312 0.28125 1.0625 C 0.28125 0.945312 0.332031 0.804688 0.4375 0.640625 C 0.550781 0.484375 0.785156 0.234375 1.140625 -0.109375 C 0.835938 -0.203125 0.6875 -0.351562 0.6875 -0.5625 C 0.6875 -0.71875 0.75 -0.878906 0.875 -1.046875 C 1.007812 -1.210938 1.1875 -1.382812 1.40625 -1.5625 C 1.164062 -1.6875 0.976562 -1.859375 0.84375 -2.078125 C 0.71875 -2.296875 0.65625 -2.535156 0.65625 -2.796875 C 0.65625 -3.078125 0.722656 -3.328125 0.859375 -3.546875 C 1.003906 -3.773438 1.203125 -3.953125 1.453125 -4.078125 C 1.703125 -4.210938 1.976562 -4.28125 2.28125 -4.28125 Z M 1.421875 -3.171875 C 1.421875 -2.953125 1.453125 -2.722656 1.515625 -2.484375 C 1.578125 -2.242188 1.675781 -2.035156 1.8125 -1.859375 C 1.957031 -1.691406 2.140625 -1.609375 2.359375 -1.609375 C 2.554688 -1.609375 2.71875 -1.703125 2.84375 -1.890625 C 2.96875 -2.078125 3.03125 -2.320312 3.03125 -2.625 C 3.03125 -2.800781 2.992188 -3 2.921875 -3.21875 C 2.859375 -3.4375 2.753906 -3.625 2.609375 -3.78125 C 2.472656 -3.9375 2.300781 -4.015625 2.09375 -4.015625 C 1.90625 -4.015625 1.742188 -3.9375 1.609375 -3.78125 C 1.484375 -3.632812 1.421875 -3.429688 1.421875 -3.171875 Z M 2.796875 0.015625 L 2.453125 0.015625 C 2.179688 0.015625 1.957031 0.0078125 1.78125 0 C 1.613281 -0.0078125 1.46875 -0.0351562 1.34375 -0.078125 C 1.207031 0.078125 1.101562 0.21875 1.03125 0.34375 C 0.96875 0.46875 0.9375 0.585938 0.9375 0.703125 C 0.9375 0.921875 1.085938 1.085938 1.390625 1.203125 C 1.691406 1.316406 2.050781 1.375 2.46875 1.375 C 2.769531 1.375 3.039062 1.332031 3.28125 1.25 C 3.519531 1.175781 3.707031 1.066406 3.84375 0.921875 C 3.976562 0.785156 4.046875 0.632812 4.046875 0.46875 C 4.046875 0.28125 3.945312 0.15625 3.75 0.09375 C 3.550781 0.0390625 3.234375 0.015625 2.796875 0.015625 Z M 2.796875 0.015625 "/></g></g></g></svg>